# xmcd
#
# Track frame offsets:
#	150
#	79061
#	124771
#	160972
#	198632
#
# Disc length: 2994 seconds
#
# Revision: 1
# Processed by: cddbd v1.5.2PL0 Copyright (c) Steve Scherf et al.
# Submitted via: audiograbber 1.83.01
#
DISCID=3d0bb005
DTITLE=Grateful Dead - 83-09-07 Red Rocks Amphitheatre, Morrison CO
DYEAR=1900
DGENRE=
TTITLE0=Space
TTITLE1=Truckin
TTITLE2=Stella Blue
TTITLE3=Sugar Magnolia
TTITLE4=US Blues
EXTD=
EXTT0=
EXTT1=
EXTT2=
EXTT3=
EXTT4=
PLAYORDER=
